<?xml version="1.0" encoding="UTF-8"?>
<svg width="18px" height="18px" viewBox="0 0 18 18" version="1.1" xmlns="http://www.w3.org/2000/svg" xmlns:xlink="http://www.w3.org/1999/xlink">
    <g stroke="none" stroke-width="1" fill="none" fill-rule="evenodd">
        <path d="M17.0062 9.00625C17.0062 4.03125 13.0062 0.00625 8.00625 0.00625C3.00625 0.00625 -0.99375 4.03125 -0.99375 9.00625C-0.99375 13.4813 1.30625 17.2562 4.67125 18.0062V11.7312H2.67125V9.00625H4.67125V7.00625C4.67125 4.78125 5.96375 3.56875 8.00625 3.56875C9.00625 3.56875 10.0062 3.78125 10.0062 3.78125V5.78125H9.00625C8.00625 5.78125 7.34375 6.45625 7.34375 7.23125V9.00625H9.89375L9.45625 11.7312H7.34375V18.0062C10.7088 17.2562 13.0062 13.4813 13.0062 9.00625H17.0062Z" fill="#1877F2"/>
    </g>
</svg> 